<svg xmlns="http://www.w3.org/2000/svg" xmlns:xlink="http://www.w3.org/1999/xlink" viewBox="0 0 983.17 1089.22"><defs><style>.cls-1,.cls-8{fill:none;}.cls-2{fill:#020202;}.cls-3{clip-path:url(#clip-path);}.cls-4{fill:#0395d9;}.cls-5{fill:#d42231;}.cls-6{fill:#e9b004;}.cls-7{fill:#0fd502;}.cls-8{stroke:#000;stroke-miterlimit:10;}</style><clipPath id="clip-path" transform="translate(-255.8 -97.78)"><rect class="cls-1" width="1713" height="1713"/></clipPath></defs><title>Asset 9</title><g id="Layer_2" data-name="Layer 2"><g id="Layer_1-2" data-name="Layer 1"><path class="cls-1" d="M1054,486.62c1-1.42-1.2-3.63,1.56-4.23a2.28,2.28,0,0,1,2.83,2.26C1058.35,486.32,1057,487,1054,486.62Z" transform="translate(-255.8 -97.78)"/><path class="cls-1" d="M1002.4,488.14c0,2.66-2,5-4.27,5.11s-4.37-2.42-4.34-5.23,2.1-5.05,4.36-5S1002.4,485.46,1002.4,488.14Z" transform="translate(-255.8 -97.78)"/><path class="cls-1" d="M847.53,489.5a4.08,4.08,0,0,1-3.51,3.73c-1.66.08-3.35-1.84-3.34-3.79s1.74-3.92,3.3-3.89C845.73,485.59,847.51,487.56,847.53,489.5Z" transform="translate(-255.8 -97.78)"/><path class="cls-1" d="M588.3,486.81h-4.15C585.08,484.77,586.33,484.66,588.3,486.81Z" transform="translate(-255.8 -97.78)"/><path class="cls-1" d="M917.67,486.76c2-2.07,2.82-2.06,4.32,0Z" transform="translate(-255.8 -97.78)"/><path class="cls-1" d="M683.68,489.42a3.57,3.57,0,0,1-3.05,3.8c-1.61.09-3.29-1.87-3.3-3.83s1.57-3.77,3.12-3.83S683.65,487.3,683.68,489.42Z" transform="translate(-255.8 -97.78)"/><path class="cls-2" d="M379.19,1137c1.6-9.86,3-19.13,4.72-28.36.15-.81,2-1.75,3.09-1.85,3.08-.26,6.19-.11,9.29-.09,6.79,0,10,4.9,7.77,11.41a10.09,10.09,0,0,0-.34,5.46c1.46,5.67-2.09,12.52-8,13.29C390.55,1137.54,385.18,1137,379.19,1137Zm9-6.05c3.3.29,6.72,1.29,7.59-3,.55-2.69-1.77-3-3.87-3C387.42,1124.88,388.53,1128.12,388.23,1130.95Zm1.64-11c2.82-1.19,4.75-1.68,6.22-2.78.6-.45.6-3,.18-3.25a24.78,24.78,0,0,0-5.33-1.39Z" transform="translate(-255.8 -97.78)"/><path class="cls-2" d="M309.08,1112.35c1-.33,1.52-.46,2-.65,6.31-2.49,11.72.91,11.41,7.7-.23,5.18-1.4,10.33-2.28,15.47-.59,3.43-3.48,2.47-5.43,2.12-.8-.14-1.78-2.43-1.71-3.68a87.21,87.21,0,0,1,1.42-9.62c.4-2.35.65-5.25-2.36-5.18-1.6,0-3.91,2.51-4.54,4.35-1.17,3.42-1.46,7.17-1.88,10.81s-2.71,3.76-5.47,3.54c-3.63-.29-2.41-2.93-2.15-4.77,1.26-8.66,2.74-17.29,4-25.95.56-3.72,3.23-3.41,5.77-3.15,3.21.33,2.11,2.68,1.88,4.54C309.63,1109.24,309.37,1110.57,309.08,1112.35Z" transform="translate(-255.8 -97.78)"/><path class="cls-2" d="M418.16,1126.29c1.66,4.3,3.8,5.13,7.8,3.21,1.84-.88,3.13-1.66,4.53.62s.5,3.55-1.35,4.88c-3.88,2.8-8.06,3.57-12.31,1.39-4.09-2.09-6-5.75-5.91-10.42a16.89,16.89,0,0,1,10.95-15.54,9.12,9.12,0,0,1,10.36,2.61A10.22,10.22,0,0,1,434.6,1124c-.4,1.08-2.42,2.11-3.77,2.21C426.8,1126.47,422.72,1126.29,418.16,1126.29Zm1.82-6.73h8C425.08,1115.58,422.85,1116.56,420,1119.55Z" transform="translate(-255.8 -97.78)"/><path class="cls-2" d="M337.13,1126.29c2.5,5,5.58,4.7,8.62,3.09,2-1.07,3.19-1.15,4.47.94s.4,3.31-1.28,4.54c-3.83,2.81-8,3.74-12.3,1.62-4.47-2.2-6.35-6.16-6.13-11.14a17,17,0,0,1,11.16-15,9.07,9.07,0,0,1,10.31,2.82,10.26,10.26,0,0,1,2.17,11c-.39,1-2.25,2-3.49,2C346.52,1126.45,342.33,1126.29,337.13,1126.29Zm10.4-6.56c-3.21-3.88-4.93-3.75-7.27,0Z" transform="translate(-255.8 -97.78)"/><path class="cls-2" d="M444.94,1128.45l7.93,1.94.64-1.83c-1.34-.74-2.64-1.6-4-2.21-3.38-1.47-5-4-4.79-7.64a9.19,9.19,0,0,1,7-8.58c3.69-1.08,7.08-.57,9.53,2.58.55.71.59,2.73.06,3.16a9.34,9.34,0,0,1-4.51,2c-1.31.17-2.74-.61-4.11-1l-.41,1.42c1.43.68,2.87,1.32,4.29,2,4.81,2.42,6.05,5.87,3.93,10.83a11.43,11.43,0,0,1-14.57,5.85C440.83,1134.92,440.66,1131.85,444.94,1128.45Z" transform="translate(-255.8 -97.78)"/><path class="cls-2" d="M293.52,1106.7c.49,6.5.2,6.71-5.32,7.47a4.24,4.24,0,0,0-2.92,2.56c-1,4.81-1.69,9.7-2.41,14.58-.91,6.2-1.54,6.65-8.62,5.22l3.28-22c-1.11-.18-2-.39-3-.46-1.89-.14-4.23.51-3.86-2.82.28-2.53.53-4.71,4-4.61C280.89,1106.83,287.07,1106.7,293.52,1106.7Z" transform="translate(-255.8 -97.78)"/><path class="cls-2" d="M483,1103.21l-.41,5.9c1.48,2,3.18,3.39,3.44,5,.41,2.48-.57,4.64-3.8,5-.67.07-1.47,1.81-1.68,2.88-.72,3.72-1.35,7.48-1.75,11.24-.38,3.58-2.47,4.27-5.55,4-3.63-.35-2.27-3-2.12-4.78.22-2.79,1.14-5.54,1.24-8.33.07-2-.74-4-1.13-6A11.43,11.43,0,0,1,471,1116C470.94,1111,477,1104.17,483,1103.21Z" transform="translate(-255.8 -97.78)"/><path class="cls-1" d="M388.23,1130.95c.3-2.83-.81-6.07,3.72-6,2.11,0,4.42.31,3.87,3C394.95,1132.24,391.53,1131.24,388.23,1130.95Z" transform="translate(-255.8 -97.78)"/><path class="cls-1" d="M389.87,1119.9l1.07-7.42a24.78,24.78,0,0,1,5.33,1.39c.42.21.42,2.8-.18,3.25C394.62,1118.23,392.69,1118.72,389.87,1119.9Z" transform="translate(-255.8 -97.78)"/><path class="cls-1" d="M816.9,1175.32c2.52.44,4.14,2.24,4,5.4s-3.52,6.47-6.77,6.27-4.4-2.08-4.23-5.11A6.75,6.75,0,0,1,816.9,1175.32Z" transform="translate(-255.8 -97.78)"/><path class="cls-1" d="M787,1179.78c0,3.92-3.38,7.37-6.8,7.21-2.93-.13-4.19-1.91-4.25-4.71-.07-3.54,2.79-7,5.93-7S786.69,1177.17,787,1179.78Z" transform="translate(-255.8 -97.78)"/><path class="cls-1" d="M395.58,1176.88h-7.19C390.92,1173.17,392.56,1173.09,395.58,1176.88Z" transform="translate(-255.8 -97.78)"/><path class="cls-1" d="M846.2,1176.67c3-2.91,5.23-4,7.9,0Z" transform="translate(-255.8 -97.78)"/><path class="cls-1" d="M420,1119.55c2.87-3,5.11-4,8,0Z" transform="translate(-255.8 -97.78)"/><path class="cls-1" d="M347.54,1119.73h-7.27C342.61,1116,344.32,1115.85,347.54,1119.73Z" transform="translate(-255.8 -97.78)"/><path class="cls-2" d="M793.56,1123.09c2-4.46,4-8.93,5.95-13.39,1.48-3.31,5.47-5,8.59-3.38a3.37,3.37,0,0,1,1.24,2.68c-.43,8.31-1.05,16.61-1.54,24.92-.2,3.46-2.75,2.44-4.68,2.61-2.26.19-2.9-1-2.8-3.1a50.26,50.26,0,0,0-.45-9.59c-1.43,3.17-3.06,6.26-4.22,9.53-1,2.9-3.12,3.9-5.53,3-1.31-.51-2.36-2.63-2.79-4.22-.67-2.47-.71-5.12-2-7.76-.68,2.34-1.43,4.66-2,7-1.44,5.67-2.26,6.13-8.69,4.36q2.45-9.74,4.91-19.52a66.24,66.24,0,0,0,1.67-6.55c.41-2.8,1.82-3.59,4.56-3.7,3.68-.16,5.4.88,5.52,4.84s1,8.06,1.49,12.09Z" transform="translate(-255.8 -97.78)"/><path class="cls-2" d="M910.79,1136.39c.72-5,1.61-9.23,1.84-13.54.1-1.72-1.23-3.52-1.91-5.29-1.47,1.44-3.71,2.63-4.24,4.36a63.89,63.89,0,0,0-2.05,11.65c-.43,3.78-3.14,2.92-5.4,2.93-3,0-2.33-2-2-3.88a91.93,91.93,0,0,0,1.52-10.46c.07-1.48-1.2-3-1.87-4.53-1.54,1.2-3.73,2.1-4.47,3.68-1,2.21-1,4.93-1.42,7.44-.25,1.53-.51,3.06-.68,4.61-.43,3.77-3.19,3.31-5.72,3.14-3-.2-2.14-2.51-1.91-4.14.85-6.15,1.77-12.3,2.91-18.4.21-1.13,1.46-2.82,2.35-2.89,1.67-.15,3.42.7,5.74,1.28,4.21-3.34,6.19-3.32,12.11.78a44.84,44.84,0,0,1,3.94-2.2c5.53-2.43,11.2.83,11,6.8a96.19,96.19,0,0,1-2,16.34C917.66,1138.34,914.12,1136.09,910.79,1136.39Z" transform="translate(-255.8 -97.78)"/><path class="cls-2" d="M977.75,1133.93c-3.56,3.06-7.27,3.57-11.09,1.17s-5-6.37-4.66-10.67a15.51,15.51,0,0,1,7-12c4.44-3,7.72-3,12.34.26.5-2.39,1.1-4.62,1.41-6.89.53-3.83,3.45-3.44,5.78-2.9.83.19,1.73,2.8,1.55,4.17-1.06,8.11-2.34,16.2-3.71,24.27C985.45,1136.71,982.43,1137.66,977.75,1133.93Zm-1.34-16.4a6.75,6.75,0,0,0-7,6.56c-.17,3,1.08,4.92,4.23,5.11s6.67-3,6.77-6.27S978.93,1118,976.41,1117.53Z" transform="translate(-255.8 -97.78)"/><path class="cls-2" d="M586.61,1134.31c-6.09,3.3-10.76,2.65-14.17-2-3.88-5.29-2.8-12.79,2.59-18s10.72-5.59,16.23-1.11c.37-.59.6-1.47,1.1-1.67a12.28,12.28,0,0,1,4.54-1.09c.38,0,1.14,2.3,1,3.44-.73,5.6-1.68,11.16-2.6,16.73C594.3,1136.69,591.92,1137.68,586.61,1134.31Zm-8.6-8.6c1,.77,2.44,2.83,4.32,3.28,2.56.61,6.23-3.62,6.13-6.43s-1.58-4.53-4.4-4.75S578,1121,578,1125.71Z" transform="translate(-255.8 -97.78)"/><path class="cls-2" d="M832.55,1134.14c-5.48,3.51-10.29,3-13.86-1.4-4-5-3.1-12.83,2.13-18.06s10.63-5.85,16.17-1.37c.48-.64.83-1.61,1.46-1.85a10.42,10.42,0,0,1,4.54-.92c.46,0,1.13,2.32,1,3.48-.73,5.59-2,11.12-2.51,16.73C841,1136.56,837.22,1137.7,832.55,1134.14Zm-2.41-16.65a7,7,0,0,0-6.45,7c.08,3.06,1.62,4.76,4.72,4.67a7,7,0,0,0,6.36-6.73A4.75,4.75,0,0,0,830.14,1117.49Z" transform="translate(-255.8 -97.78)"/><path class="cls-2" d="M948.76,1113.26c.4-.53.7-1.35,1.23-1.54,1.56-.58,3.21-.91,4.83-1.33.28,1.38.95,2.81.78,4.13-.68,5.31-2,10.56-2.38,15.89-.49,6.28-4.14,7.23-9,3.81-5.4,3.47-10.31,2.92-13.83-1.53-3.88-4.91-3-12.52,2-17.75C937.52,1109.45,943,1108.83,948.76,1113.26Zm-2.27,8.72c-.29-2.61-1.92-4.43-5.11-4.46s-6,3.43-5.93,7c.06,2.79,1.32,4.58,4.25,4.71C943.1,1129.35,946.53,1125.9,946.49,1122Z" transform="translate(-255.8 -97.78)"/><path class="cls-2" d="M545.8,1125.84c1.37,4.07,3.52,4.94,7.25,3,2-1,3.39-1.84,4.82.69s.07,3.86-1.86,5.13c-4.11,2.71-9.31,3.06-12.72.64a11.41,11.41,0,0,1-4.87-12.19c1.32-6.85,4.92-11.9,12.05-13.72,4-1,7.2.6,9.72,3.56a10.75,10.75,0,0,1,1.84,10.73c-.34,1-2.59,1.92-4,2C554,1126,550,1125.84,545.8,1125.84Zm9.28-6.76c-3-3.79-4.65-3.7-7.19,0Z" transform="translate(-255.8 -97.78)"/><path class="cls-2" d="M1003.36,1125.69c2.38,5.12,5.57,4.62,8.57,3,2.07-1.09,3.2-1.11,4.45,1s.47,3.29-1.24,4.56c-4,3-9.27,3.61-13.06,1.33-4.34-2.6-6.41-7.94-5-13.71a16.73,16.73,0,0,1,8-10.94c3.49-2,7.24-2.64,10.81-.32a11.11,11.11,0,0,1,5.28,10.39c-.15,3.17-1.37,4.94-4.93,4.75C1012.2,1125.53,1008.16,1125.69,1003.36,1125.69Zm2.34-6.82h7.9C1010.93,1114.88,1008.69,1116,1005.71,1118.87Z" transform="translate(-255.8 -97.78)"/><path class="cls-2" d="M518.58,1114.59a35.64,35.64,0,0,0,3.69,2c7.75,3.16,9.73,6.3,7.49,12.06-2.4,6.18-10,9.57-16.09,7.12-1.29-.52-2.85-1.07-3.58-2.1-.94-1.32-2.11-3.79-1.53-4.62,1.35-2,3.2-4.71,6.4-1.62a7.72,7.72,0,0,0,4.57,1.58,3.16,3.16,0,0,0,2.35-2c.18-.69-.71-2-1.48-2.54-1.38-.94-3.09-1.38-4.54-2.24-5.84-3.47-6.51-9.84-1.6-14.54,3.91-3.75,11.23-4.32,15.16-.82,1,.88,1.79,3.59,1.23,4.29-1.29,1.61-2.47,5.08-5.85,2.21C522.79,1111.76,520.57,1111.26,518.58,1114.59Z" transform="translate(-255.8 -97.78)"/><path class="cls-2" d="M631.6,1125.21c.15-8.1,7.33-15.2,15.25-15.07,6.06.1,10.68,5.07,10.59,11.37-.12,8-7.52,15.24-15.31,15C635.89,1136.39,631.48,1131.64,631.6,1125.21Zm18-4.44c-.87-.69-2.35-2.7-4.18-3.08-3.11-.65-6.47,3.39-6.28,7,.14,2.77,1.6,4.48,4.5,4.53C646.83,1129.27,649.62,1126,649.58,1120.77Z" transform="translate(-255.8 -97.78)"/><path class="cls-2" d="M673.24,1112.2c3.65-.79,6.47-2,9.23-1.85,3.82.18,6.71,3.87,6.45,8.14a117.34,117.34,0,0,1-2.09,15.49c-.86,4.37-4.41,2-7.69,2.52.6-4.49,1.14-8.6,1.7-12.7.35-2.57.93-5.69-2.54-6.11s-4.83,2.38-5.35,5.41c-.62,3.61-1.1,7.25-1.73,10.86s-3.61,2.69-5.71,2.33c-.82-.14-1.92-2.47-1.78-3.66.73-5.87,1.76-11.71,2.83-17.54C667.5,1110,669.89,1109.25,673.24,1112.2Z" transform="translate(-255.8 -97.78)"/><path class="cls-2" d="M860.5,1112.63c2.2-.86,4.21-2.11,6.34-2.39a7.6,7.6,0,0,1,8.71,8.07,87.69,87.69,0,0,1-2.17,15.88c-.95,4.1-4.41,1.91-7.6,2.12.65-4.56,1.22-8.69,1.83-12.81.36-2.48.67-5.29-2.49-5.8s-4.81,2-5.4,4.8a78.11,78.11,0,0,0-1.64,10.44c-.29,4.16-3.08,3.77-5.75,3.54-3.24-.29-2.15-2.64-1.86-4.49.87-5.57,1.72-11.14,2.72-16.69C854.14,1109.9,856.37,1109.21,860.5,1112.63Z" transform="translate(-255.8 -97.78)"/><path class="cls-2" d="M614.85,1127.53c-1.37-.61-2.73-1.24-4.11-1.82-3.42-1.43-5.07-4.07-4.74-7.68.4-4.36,2.78-7.23,7.1-8.48,3.77-1.09,7-.38,9.54,2.64.52.62.61,2.55.19,2.83a13.36,13.36,0,0,1-4.91,2.14c-1.15.21-2.48-.55-3.73-.87l-.5,1.44,3.86,1.86c5.14,2.5,6.54,6.82,3.85,11.87-3.22,6.05-12.07,7.72-16.68,3.18-1.64-1.61-2.31-3.21-.44-5.08,1.39-1.39,2.46-3,4.9-1.06,1.24,1,3.47.71,5.25,1Z" transform="translate(-255.8 -97.78)"/><path class="cls-2" d="M741.87,1117.78c1.33.65,2.68,1.27,4,1.94,4.44,2.24,5.76,5.34,4.31,10.07-2.22,7.22-12.68,10.08-17.47,4.61a5,5,0,0,1-.41-4.57c.88-1.67,2.33-3.58,5-1.29,1.16,1,3.45.67,5.23.94l.49-1.74c-1.4-.68-2.78-1.41-4.21-2a7.27,7.27,0,0,1-4.74-8.07c.41-4.22,3.31-7.27,7.81-8.32a8.23,8.23,0,0,1,9,3.09c.45.6.31,2.51-.17,2.79a14.6,14.6,0,0,1-4.94,1.79c-1.15.19-2.41-.34-3.63-.54Z" transform="translate(-255.8 -97.78)"/><path class="cls-2" d="M725.43,1106.89c-1,6.58-2,13.23-3.05,19.87-.19,1.25-.47,2.5-.63,3.75-.82,6.48-1,6.59-8.54,5.59.58-4.08,1.14-8.19,1.77-12.29s1.3-8.37,2.06-12.53C718.1,1105.47,718.83,1105.08,725.43,1106.89Z" transform="translate(-255.8 -97.78)"/><path class="cls-1" d="M578,1125.71c0-4.68,3.12-8.13,6-7.9s4.3,2,4.4,4.75-3.56,7-6.13,6.43C580.46,1128.54,579,1126.48,578,1125.71Z" transform="translate(-255.8 -97.78)"/><path class="cls-1" d="M830.14,1117.49a4.75,4.75,0,0,1,4.63,5,7,7,0,0,1-6.36,6.73c-3.09.09-4.63-1.62-4.72-4.67A7,7,0,0,1,830.14,1117.49Z" transform="translate(-255.8 -97.78)"/><path class="cls-1" d="M649.58,1120.77c0,5.22-2.75,8.5-6,8.44-2.9-.05-4.36-1.76-4.5-4.53-.19-3.6,3.17-7.65,6.28-7C647.23,1118.07,648.71,1120.08,649.58,1120.77Z" transform="translate(-255.8 -97.78)"/><path class="cls-2" d="M388.16,955.07c3,1.71,5.82,3.09,8.39,4.84C404,965,407.49,972.42,409,981c2.65,14.74,2.72,29.65,3.22,44.55a83.28,83.28,0,0,0,1.9,15.55c.68,3,2.84,5.63,4.5,8.73-.75.07-1.62.22-2.49.22-12.92,0-25.84-.07-38.76.1-2.75,0-4.29-1-4.74-3.43-1.18-6.37-2.59-12.75-3.11-19.19-.75-9.2-.49-18.49-1.27-27.69a67,67,0,0,0-3.29-15c-2.67-8.17-9.77-10.5-17.24-10.79-14.9-.56-29.82-.46-44.73-.6-5.66-.05-5.66,0-5.65,5.65,0,22.38,0,44.75.08,67.13,0,3.08-1,4-4,3.91-11.45-.15-22.9-.11-34.35,0-2.33,0-3.35-.44-3.34-3.08q.12-87.93.11-175.86c0-10,9.5-18.89,20.22-19,16.39-.1,32.78,0,49.16,0,10,0,20-.1,29.94,0,11,.15,21.77,1.54,32,5.91,15.94,6.82,24.72,19.26,27.77,36,2.05,11.29,2,22.58-1.59,33.6-4.07,12.42-11.83,21.59-24.1,26.65A12,12,0,0,0,388.16,955.07Zm-90.64-17c13.62,0,26.84.08,40.06,0a132.26,132.26,0,0,0,16.64-.9c8.7-1.19,16.24-4.88,18.65-14.05A52.21,52.21,0,0,0,374,907c-.4-6.62-4-11.83-9.55-15.55C359.34,888,353.53,887,347.61,887c-15.65-.12-31.3,0-46.95,0-1,0-2,.12-3.14.2Z" transform="translate(-255.8 -97.78)"/><path class="cls-2" d="M587.74,949.35q0-24.26,0-48.52c0-4,0-4,4.06-4,11.13,0,22.27.1,33.4-.07,3,0,3.72.92,3.71,3.78q-.12,46.32,0,92.64c0,21.94,19.77,33.86,39.6,24.13,8.54-4.19,12.76-11.05,12.81-20.35.14-26.57.06-53.15.15-79.72,0-7.85,3.33-14.13,10.26-17.89a23,23,0,0,1,9.3-2.4c6-.37,12,0,18-.16,2.3,0,3.14.7,3.13,3.06-.08,31.09,0,62.18-.17,93.27a77.57,77.57,0,0,1-5.26,27.67c-5.16,13.3-15.56,20.64-28.22,25.63-27.5,10.83-53.84,8.06-79.12-6.71-11-6.43-16.71-16.77-18.9-28.83a192.18,192.18,0,0,1-2.59-27.17c-.43-11.43-.1-22.89-.1-34.34Z" transform="translate(-255.8 -97.78)"/><path class="cls-2" d="M546.83,897.43H566c4.51,0,4.62,0,4.47,4.47-.12,3.44,0,7-1,10.28a19.06,19.06,0,0,1-18.7,13.69c-3.49,0-4,1.17-4,4.3.12,26,.06,52.09.07,78.13,0,7.81,3,10.85,10.83,10.91,3.36,0,6.72.08,10.08,0,2-.06,2.83.74,2.82,2.76q-.07,12.76,0,25.52c0,1.82-.69,2.66-2.56,2.76a222,222,0,0,1-43.67-1.43c-8.83-1.23-16-9.27-17.12-18.66a114.37,114.37,0,0,1-.93-13.79q0-80,.05-160c0-4.09,0-4.09,4.23-4.09,5.67,0,11.34-.05,17,0a19.68,19.68,0,0,1,19.21,19.08c.11,7.56,0,15.12,0,22.68C546.83,895,546.83,896,546.83,897.43Z" transform="translate(-255.8 -97.78)"/><path class="cls-2" d="M445.14,973.66c0-24.26.05-48.51-.06-72.76,0-3.08.68-4.31,4-4.15,5.66.27,11.34,0,17,.09a19.89,19.89,0,0,1,20,20.27q0,64.42,0,128.83c0,4.08,0,4.09-4.18,4.09-11,0-22.05-.1-33.07.08-3.16.05-3.83-1.07-3.82-4,.1-24.15.06-48.3.06-72.45Z" transform="translate(-255.8 -97.78)"/><path class="cls-2" d="M465.42,885c-6,0-12-.09-17.93,0-2.51.06-3.25-.86-3.22-3.3.12-9.12,0-18.25.06-27.37,0-3.31,1-4.37,4.25-4.39,6.29,0,12.59-.13,18.88,0a20.35,20.35,0,0,1,19.86,20.28c0,3.57,0,7.13,0,10.7,0,2.74-1.17,4-4,4-6-.08-12,0-17.93,0Z" transform="translate(-255.8 -97.78)"/><path class="cls-2" d="M767.65,873.51c-3,1.47-5.32,2.68-7.7,3.73-2.65,1.16-4.36.16-4.45-2.75a87.68,87.68,0,0,1,.12-12.9c.2-1.71,1.89-3.63,3.43-4.73,7.3-5.21,15.65-5.74,24.32-5.38,8.44.35,8.45.08,8.45,8.46q0,39.7,0,79.4c0,5-.6,5.55-5.67,5.55l-13.23,0c-4.62,0-5.31-.67-5.31-5.24q0-31,0-62.07C767.65,876.48,767.65,875.35,767.65,873.51Z" transform="translate(-255.8 -97.78)"/><path class="cls-2" d="M815,893.63a21.78,21.78,0,0,1-7.44-7.09,23.61,23.61,0,0,1-3.19-12.32,22.84,22.84,0,0,1,9.19-18.73q7.17-5.6,19-5.6,15.62,0,23.08,7a23,23,0,0,1,7.46,17.55,23.32,23.32,0,0,1-3,11.51,26.57,26.57,0,0,1-7,7.72,23.19,23.19,0,0,1,9.43,9.4A27.15,27.15,0,0,1,865.65,916,30.71,30.71,0,0,1,863,928.75a22.67,22.67,0,0,1-16.31,13.94,48.76,48.76,0,0,1-12.4,1.52q-12.38,0-18.91-3.42a22.8,22.8,0,0,1-9.93-10.08,32.22,32.22,0,0,1-3.4-14.87,27,27,0,0,1,3.19-13.6A21,21,0,0,1,815,893.63ZM823.58,915a15.06,15.06,0,0,0,3.13,9.86q3.13,3.83,7.17,3.83,3.88,0,7-3.89a17.31,17.31,0,0,0,0-19.76q-3.11-3.86-7.2-3.86a8.84,8.84,0,0,0-7,3.73Q823.58,908.63,823.58,915Zm1.17-39.26a11.18,11.18,0,0,0,2.52,7.62,8.47,8.47,0,0,0,6.72,2.89,7.61,7.61,0,0,0,6.11-2.86,11.16,11.16,0,0,0,2.39-7.4,11.5,11.5,0,0,0-2.5-7.68,8.44,8.44,0,0,0-12.78-.06A11.14,11.14,0,0,0,824.75,875.71Z" transform="translate(-255.8 -97.78)"/></g><g id="LOGO"><g class="cls-3"><path class="cls-4" d="M694.46,205a648.35,648.35,0,0,1,105.82-66.14C845,116.62,873,102.65,912.72,99.21c22.45-1.94,88.93-7.7,132.28,33.07,47.36,44.54,39.8,118.93,33.07,185.19a460.06,460.06,0,0,1-46.3,158.73c6.28-61-9.07-103.26-19.84-125.66C964.07,251,838,193.24,694.46,205Z" transform="translate(-255.8 -97.78)"/><path class="cls-4" d="M834.83,216.67c-2.09-.58,172.14-67.86,244.06,95.84,0,0-20.67,110.78-47.12,163.69C1031.77,476.2,1067.79,281.22,834.83,216.67Z" transform="translate(-255.8 -97.78)"/><path class="cls-5" d="M939.17,330.69S793.67,211.64,668,244.71,535.73,383.61,535.73,383.61s-13.23,72.75,39.68,158.73C575.41,542.34,654.78,297.63,939.17,330.69Z" transform="translate(-255.8 -97.78)"/><path class="cls-6" d="M826.74,377S668,449.75,621.71,575.41,661.39,754,661.39,754s33.07,33.07,105.82,46.3C767.21,800.28,707.69,502.66,826.74,377Z" transform="translate(-255.8 -97.78)"/><path class="cls-7" d="M1150.82,277.78s132.28,191.8,72.75,297.63-119.05,125.66-165.35,152.12-52.91,33.07-59.53,39.68-19.84-92.59,52.91-224.87S1157.43,284.4,1150.82,277.78Z" transform="translate(-255.8 -97.78)"/></g><path class="cls-8" d="M932.56,476.2s26.46,13.23,0,72.75" transform="translate(-255.8 -97.78)"/><path class="cls-8" d="M846.58,529.11" transform="translate(-255.8 -97.78)"/><ellipse class="cls-2" cx="912.2" cy="537.11" rx="63.55" ry="29.42" transform="translate(-168.46 1102.81) rotate(-69.3)"/><path class="cls-2" d="M1025.15,522.5S919.33,641.55,906.1,668s-39.68,66.14,0,198.42c0,0,86,211.64,99.21,231.49,0,0-59.53-211.64-66.14-264.56,0,0-26.46-72.75,13.23-158.73C952.4,674.62,1018.54,562.18,1025.15,522.5Z" transform="translate(-255.8 -97.78)"/><path class="cls-2" d="M952.4,820.12l152.12,152.12S972.24,939.17,952.4,820.12Z" transform="translate(-255.8 -97.78)"/><path class="cls-2" d="M869.19,733.64c-.66-7-4.26-12.81-7.43-18.78-9.12-17.16-18.81-34-27.3-51.49-10.46-21.52-16.08-44.6-19.21-68.28-.39-3-.68-5.92-1-8.89a4.66,4.66,0,0,1,.18-1.17c5,.29,7.09,4.24,9.55,7.49,8.2,10.79,16.67,21.42,24.25,32.65a167.13,167.13,0,0,1,24.65,55.1c3.74,15.77,4.75,31.7.34,47.57-.61,2.2-1.93,4.2-2.93,6.29Z" transform="translate(-255.8 -97.78)"/></g></g></svg>